HIERARCHY
ROOT Hips
{
  OFFSET 49.2204 81.7927 7.68629
  CHANNELS 6 Xposition Yposition Zposition Zrotation Xrotation Yrotation
  JOINT spine
  {
    OFFSET 0 6.24479 0.359107
    CHANNELS 3 Zrotation Xrotation Yrotation
    JOINT spine1
    {
      OFFSET 0 9.06941 0
      CHANNELS 3 Zrotation Xrotation Yrotation
      JOINT spine2
      {
        OFFSET 0 8.69014 0
        CHANNELS 3 Zrotation Xrotation Yrotation
        JOINT Neck
        {
          OFFSET 0 22.3112 1.06372
          CHANNELS 3 Zrotation Xrotation Yrotation
          JOINT Head
          {
            OFFSET 0 6.74081 0
            CHANNELS 3 Zrotation Xrotation Yrotation
            End Site
            {
              OFFSET 0 16.3165 -5.38097
            }
          }
        }
        JOINT RightShoulder
        {
          OFFSET -3.65916 9.38468 -0.509514
          CHANNELS 3 Zrotation Xrotation Yrotation
          JOINT RightArm
          {
            OFFSET 0 12.3089 0
            CHANNELS 3 Zrotation Xrotation Yrotation
            JOINT RightArmRoll
            {
              OFFSET 0 6.21375 0
              CHANNELS 3 Zrotation Xrotation Yrotation
              JOINT RightForeArm
              {
                OFFSET 0 18.0985 0
                CHANNELS 3 Zrotation Xrotation Yrotation
                JOINT RightForeArmRoll
                {
                  OFFSET 0 6.97279 0
                  CHANNELS 3 Zrotation Xrotation Yrotation
                  JOINT RightHand
                  {
                    OFFSET 0 13.9929 0
                    CHANNELS 3 Zrotation Xrotation Yrotation
                    End Site
                    {
                      OFFSET 0 0 0
                    }
                  }
                }
              }
            }
          }
        }
        JOINT LeftShoulder
        {
          OFFSET 3.65916 9.38468 -0.509514
          CHANNELS 3 Zrotation Xrotation Yrotation
          JOINT LeftArm
          {
            OFFSET 0 12.3089 0
            CHANNELS 3 Zrotation Xrotation Yrotation
            JOINT LeftArmRoll
            {
              OFFSET 0 6.21375 0
              CHANNELS 3 Zrotation Xrotation Yrotation
              JOINT LeftForeArm
              {
                OFFSET 0 18.0985 0
                CHANNELS 3 Zrotation Xrotation Yrotation
                JOINT LeftForeArmRoll
                {
                  OFFSET 0 6.97279 0
                  CHANNELS 3 Zrotation Xrotation Yrotation
                  JOINT LeftHand
                  {
                    OFFSET 0 13.9929 0
                    CHANNELS 3 Zrotation Xrotation Yrotation
                    End Site
                    {
                      OFFSET 0 0 0
                    }
                  }
                }
              }
            }
          }
        }
      }
    }
  }
  JOINT RightUpLeg
  {
    OFFSET -5.53515 -1.015 -0.851454
    CHANNELS 3 Zrotation Xrotation Yrotation
    JOINT RightUpLegRoll
    {
      OFFSET 0 16.4075 0
      CHANNELS 3 Zrotation Xrotation Yrotation
      JOINT RightLeg
      {
        OFFSET 0 -20.3181 0
        CHANNELS 3 Zrotation Xrotation Yrotation
        JOINT RightLegRoll
        {
          OFFSET 0 20.3846 0
          CHANNELS 3 Zrotation Xrotation Yrotation
          JOINT RightFoot
          {
            OFFSET 0 16.9668 0
            CHANNELS 3 Zrotation Xrotation Yrotation
            JOINT RightToeBase
            {
              OFFSET 0 14.1834 0
              CHANNELS 3 Zrotation Xrotation Yrotation
              End Site
              {
                OFFSET 0.0060118 6.8689 -0.791746
              }
            }
          }
        }
      }
    }
  }
  JOINT LeftUpLeg
  {
    OFFSET 5.53515 -1.015 -0.851454
    CHANNELS 3 Zrotation Xrotation Yrotation
    JOINT LeftUpLegRoll
    {
      OFFSET 0 16.4076 0
      CHANNELS 3 Zrotation Xrotation Yrotation
      JOINT LeftLeg
      {
        OFFSET 0 20.3181 0
        CHANNELS 3 Zrotation Xrotation Yrotation
        JOINT LeftLegRoll
        {
          OFFSET 0 20.5731 0
          CHANNELS 3 Zrotation Xrotation Yrotation
          JOINT LeftFoot
          {
            OFFSET 0 16.7783 0
            CHANNELS 3 Zrotation Xrotation Yrotation
            JOINT LeftToeBase
            {
              OFFSET 0 14.1834 0
              CHANNELS 3 Zrotation Xrotation Yrotation
              End Site
              {
                OFFSET -0.0269423 6.8689 -0.791746
              }
            }
          }
        }
      }
    }
  }
}
MOTION
Frames: 13
Frame Time: 0.00208333
45.9953 81.5003 7.95256 -5.9632 1.60237 33.6898 -0.201502 -3.56846 0.20867 -0.391055 -3.13485 0.431439 -0.395997 -1.48981 0.437802 20.8233 23.9521 10.8835 -25.5911 -0.86523 17.2612 60.613 -9.23441 -5.75644 21.0022 55.1223 55.0755 -1.75175e-006 -2.28941e-006 2.28553e-006 -178.158 73.2126 174.558 -6.50626e-007 -6.14157e-006 -3 8.02887 -4.95097 0.697436 -55.1508 -7.89915 4.77693 -101.668 0.581483 -23.4709 4.28111e-006 7.70166e-007 4.37759e-006 -1.3786 17.2016 0.536711 6.40005e-006 -7.08879e-007 3 -8.02941 -4.95108 -0.697562 179.81 10.9137 0.41173 180 7.01551e-015 178.94 178.132 28.8099 179.377 -2.2066e-006 -3.05657e-006 1.09563 -53.185 81.961 55.2656 8.16929 25.8818 -2.61069 -160.979 23.5053 -9.53657 4.54188e-006 -4.6773e-006 -0.941134 -0.890988 -9.88143 0.885268 -1.60306e-007 3.14476e-006 0.481099 7.03813 58.8025 -15.3475 -8.12936 25.2332 3.48405 
46.0832 81.4874 7.9919 -6.0023 1.5761 33.9693 -0.211376 -3.5763 0.218258 -0.410219 -3.15061 0.451278 -0.415386 -1.50558 0.457953 20.6584 23.7499 10.8517 -25.2126 -0.843027 17.1635 60.4941 -9.1591 -5.70848 21.0127 55.5812 55.0292 -1.75175e-006 -2.28941e-006 2.28553e-006 -178.085 73.5862 174.462 -6.50626e-007 -6.14157e-006 -3 8.02887 -4.95097 0.697436 -55.4359 -8.00926 4.85967 -101.495 0.62261 -23.5171 4.28111e-006 7.70166e-007 4.37759e-006 -1.3832 17.0794 0.538043 6.40005e-006 -7.08879e-007 3 -8.02941 -4.95108 -0.697562 179.848 10.8067 0.397616 180 7.0155e-015 178.938 178.148 28.8097 179.376 -2.2066e-006 -3.05657e-006 1.10357 -53.4826 81.9963 55.5754 8.17021 25.9079 -2.57384 -161.037 23.577 -9.47874 4.54188e-006 -4.6773e-006 -0.940795 -0.86314 -9.8644 0.886057 -1.60306e-007 3.14476e-006 0.483636 6.95489 58.7121 -15.3295 -8.12936 25.2332 3.48404 
46.1826 81.469 8.03453 -6.04164 1.54844 34.2506 -0.221458 -3.58388 0.228038 -0.429784 -3.16585 0.471513 -0.435181 -1.52083 0.478506 20.4981 23.5417 10.8165 -24.8335 -0.81155 17.0658 60.3749 -9.08256 -5.65971 20.9995 56.0615 55.0308 -1.75175e-006 -2.28941e-006 2.28553e-006 -178.035 73.9704 174.398 -6.50626e-007 -6.14157e-006 -3 8.02887 -4.95097 0.697436 -55.7187 -8.12179 4.94298 -101.32 0.667381 -23.5624 4.28111e-006 7.70166e-007 4.37759e-006 -1.38777 16.9562 0.539097 6.40005e-006 -7.08879e-007 3 -8.02941 -4.95108 -0.697562 179.893 10.6966 0.376046 180 7.0155e-015 178.936 178.171 28.8091 179.374 -2.2066e-006 -3.05657e-006 1.1125 -53.7964 82.0331 55.9022 8.17104 25.9336 -2.53662 -161.093 23.6444 -9.42152 4.54188e-006 -4.6773e-006 -0.940847 -0.834437 -9.84163 0.886729 -1.60306e-007 3.14476e-006 0.486568 6.86725 58.6144 -15.3099 -8.12936 25.2332 3.48404 
46.2626 81.453 8.08906 -6.08108 1.51962 34.5336 -0.231747 -3.59121 0.238022 -0.449753 -3.1806 0.492168 -0.455383 -1.53558 0.499485 20.3415 23.328 10.778 -24.4536 -0.772195 16.9679 60.2548 -9.00498 -5.61018 20.9635 56.5586 55.0767 -1.75175e-006 -2.28941e-006 2.28553e-006 -178.006 74.3634 174.364 -6.50626e-007 -6.14157e-006 -3 8.02887 -4.95097 0.697436 -55.9996 -8.2361 5.02651 -101.143 0.715693 -23.6073 4.28111e-006 7.70166e-007 4.37759e-006 -1.39211 16.8319 0.539886 6.40005e-006 -7.08879e-007 3 -8.02941 -4.95108 -0.697562 179.944 10.5839 0.348219 180 7.0155e-015 178.934 178.201 28.8081 179.369 -2.2066e-006 -3.05657e-006 1.12227 -54.1239 82.0708 56.2435 8.17177 25.9591 -2.49898 -161.148 23.7085 -9.36476 4.54188e-006 -4.6773e-006 -0.941206 -0.805066 -9.81463 0.887307 -1.60306e-007 3.14476e-006 0.489807 6.77624 58.5108 -15.2892 -8.12936 25.2332 3.48403 
46.3593 81.4561 8.12858 -6.12046 1.48988 34.8185 -0.242247 -3.5983 0.248222 -0.470127 -3.19486 0.513266 -0.475996 -1.54984 0.520914 20.188 23.1098 10.7362 -24.0729 -0.726361 16.8691 60.1334 -8.92651 -5.55994 20.9063 57.0677 55.1633 -1.75175e-006 -2.28941e-006 2.28553e-006 -177.998 74.7635 174.358 -6.50626e-007 -6.14157e-006 -3 8.02887 -4.95097 0.697436 -56.2791 -8.35159 5.10993 -100.964 0.767441 -23.6522 4.28111e-006 7.70166e-007 4.37759e-006 -1.39606 16.7064 0.540424 6.40005e-006 -7.08879e-007 3 -8.02941 -4.95108 -0.697562 180 10.469 0.315332 180 7.01549e-015 178.932 178.236 28.8069 179.363 -2.2066e-006 -3.05657e-006 1.13269 -54.4623 82.1092 56.5963 8.17243 25.9847 -2.4609 -161.202 23.7702 -9.30831 4.54188e-006 -4.6773e-006 -0.941792 -0.775212 -9.78492 0.887815 -1.60306e-007 3.14476e-006 0.493267 6.68289 58.4027 -15.2677 -8.12936 25.2332 3.48402 
46.4781 81.4436 8.18683 -6.15965 1.45946 35.1053 -0.252956 -3.60514 0.258648 -0.490908 -3.20864 0.534832 -0.497021 -1.56362 0.542818 20.0367 22.8877 10.6912 -23.6913 -0.675452 16.7692 60.01 -8.84733 -5.50907 20.8293 57.5839 55.2866 -1.75175e-006 -2.28941e-006 2.28553e-006 -178.01 75.1689 174.378 -6.50626e-007 -6.14157e-006 -3 8.02887 -4.95097 0.697436 -56.5574 -8.46763 5.1929 -100.782 0.822521 -23.6973 4.28111e-006 7.70166e-007 4.37759e-006 -1.39942 16.5798 0.540724 6.40005e-006 -7.08879e-007 3 -8.02941 -4.95108 -0.697562 -179.941 10.3524 0.27858 180 7.01548e-015 178.929 178.275 28.8056 179.355 -2.2066e-006 -3.05657e-006 1.14361 -54.809 82.1479 56.9578 8.17303 26.0106 -2.42233 -161.256 23.8304 -9.25198 4.54188e-006 -4.6773e-006 -0.942522 -0.745061 -9.754 0.888276 -1.60306e-007 3.14476e-006 0.49686 6.5882 58.2917 -15.2457 -8.12936 25.2332 3.48402 
46.5635 81.4305 8.22703 -6.19849 1.42858 35.3942 -0.263878 -3.61175 0.269314 -0.512097 -3.22195 0.55689 -0.518461 -1.57694 0.565219 19.8869 22.6625 10.643 -23.3087 -0.62087 16.6677 59.884 -8.76761 -5.4576 20.7344 58.1024 55.442 -1.75175e-006 -2.28941e-006 2.28553e-006 -178.041 75.5779 174.423 -6.50626e-007 -6.14157e-006 -3 8.02887 -4.95097 0.697436 -56.8352 -8.58361 5.27509 -100.597 0.880828 -23.743 4.28111e-006 7.70166e-007 4.37759e-006 -1.40201 16.452 0.5408 6.40005e-006 -7.08879e-007 3 -8.02941 -4.95108 -0.697562 -179.879 10.2344 0.239155 180 7.01548e-015 178.927 178.316 28.8044 179.347 -2.2066e-006 -3.05657e-006 1.15484 -55.1608 82.1865 57.325 8.17359 26.037 -2.38324 -161.31 23.89 -9.19563 4.54188e-006 -4.6773e-006 -0.943315 -0.714801 -9.72338 0.888711 -1.60306e-007 3.14476e-006 0.500499 6.4932 58.1793 -15.2237 -8.12936 25.2332 3.48401 
46.6604 81.4226 8.28053 -6.23685 1.39747 35.6852 -0.275013 -3.61813 0.280231 -0.533696 -3.23482 0.579463 -0.540316 -1.58982 0.588143 19.7376 22.4349 10.5918 -22.925 -0.564022 16.5641 59.7549 -8.68751 -5.40561 20.6238 58.6183 55.6245 -1.75175e-006 -2.28941e-006 2.28553e-006 -178.09 75.9888 174.49 -6.50626e-007 -6.14157e-006 -3 8.02887 -4.95097 0.697436 -57.1128 -8.69892 5.35615 -100.41 0.942257 -23.7897 4.28111e-006 7.70166e-007 4.37759e-006 -1.40363 16.3231 0.540667 6.40005e-006 -7.08879e-007 3 -8.02941 -4.95108 -0.697562 -179.816 10.1156 0.198249 180 7.01547e-015 178.924 178.359 28.8033 179.338 -2.2066e-006 -3.05657e-006 1.16622 -55.5147 82.2248 57.6944 8.17412 26.0641 -2.3436 -161.365 23.9501 -9.13909 4.54188e-006 -4.6773e-006 -0.944089 -0.684617 -9.69459 0.889145 -1.60306e-007 3.14476e-006 0.504095 6.39888 58.067 -15.2018 -8.12936 25.2332 3.48401 
46.7572 81.4062 8.32571 -6.27461 1.36636 35.9784 -0.286362 -3.62429 0.291411 -0.555708 -3.24724 0.602575 -0.562589 -1.60225 0.611613 19.5883 22.2056 10.5375 -22.5401 -0.506318 16.458 59.6221 -8.6072 -5.35315 20.5004 59.127 55.8285 -1.75175e-006 -2.28941e-006 2.28553e-006 -178.155 76.3997 174.577 -6.50626e-007 -6.14157e-006 -3 8.02887 -4.95097 0.697436 -57.3907 -8.81293 5.43574 -100.219 1.0067 -23.8378 4.28111e-006 7.70166e-007 4.37759e-006 -1.40411 16.193 0.540337 6.40005e-006 -7.08879e-007 3 -8.02941 -4.95108 -0.697562 -179.753 9.99618 0.157049 180 7.01547e-015 178.922 178.402 28.8025 179.33 -2.2066e-006 -3.05657e-006 1.17759 -55.8677 82.2623 58.0631 8.17463 26.0922 -2.30336 -161.42 24.0114 -9.08219 4.54188e-006 -4.6773e-006 -0.944762 -0.654695 -9.66913 0.889599 -1.60306e-007 3.14476e-006 0.507562 6.30621 57.9562 -15.1805 -8.12936 25.2332 3.484 
46.8629 81.3892 8.35465 -6.31164 1.33547 36.2739 -0.297927 -3.63023 0.302865 -0.578133 -3.25924 0.626251 -0.585282 -1.61426 0.635653 19.438 21.9754 10.4803 -22.1541 -0.449169 16.3489 59.485 -8.52686 -5.30028 20.3675 59.6235 56.0478 -1.75175e-006 -2.28941e-006 2.28553e-006 -178.234 76.809 174.681 -6.50626e-007 -6.14157e-006 -3 8.02887 -4.95097 0.697436 -57.6693 -8.92503 5.51352 -100.025 1.07405 -23.8877 4.28111e-006 7.70166e-007 4.37759e-006 -1.40326 16.0618 0.539824 6.40005e-006 -7.08879e-007 3 -8.02941 -4.95108 -0.697562 -179.69 9.87672 0.116743 180 7.01546e-015 178.919 178.444 28.8021 179.321 -2.2066e-006 -3.05657e-006 1.18876 -56.2163 82.2987 58.4273 8.17512 26.1214 -2.2625 -161.477 24.0749 -9.02476 4.54188e-006 -4.6773e-006 -0.945253 -0.625222 -9.64852 0.890097 -1.60306e-007 3.14476e-006 0.510812 6.2162 57.8484 -15.16 -8.12936 25.2332 3.48399 
46.958 81.3912 8.40596 -6.34781 1.30502 36.5717 -0.309708 -3.63597 0.314606 -0.600973 -3.27083 0.650515 -0.608397 -1.62585 0.660288 19.286 21.745 10.4202 -21.7668 -0.39399 16.2365 59.3431 -8.44666 -5.24704 20.229 60.1031 56.2752 -1.75175e-006 -2.28941e-006 2.28553e-006 -178.326 77.2149 174.798 -6.50626e-007 -6.14157e-006 -3 8.02887 -4.95097 0.697436 -57.949 -9.03461 5.58914 -99.8278 1.1442 -23.9396 4.28111e-006 7.70166e-007 4.37759e-006 -1.40089 15.9293 0.539142 6.40005e-006 -7.08879e-007 3 -8.02941 -4.95108 -0.697562 -179.628 9.7576 0.0785159 180 7.01546e-015 178.917 178.484 28.8022 179.314 -2.2066e-006 -3.05657e-006 1.19957 -56.557 82.3339 58.7837 8.17562 26.152 -2.22098 -161.535 24.1416 -8.96663 4.54188e-006 -4.6773e-006 -0.945479 -0.596383 -9.63426 0.890661 -1.60306e-007 3.14476e-006 0.513758 6.1298 57.7451 -15.1407 -8.12936 25.2332 3.48399 
47.0671 81.3779 8.45815 -6.38301 1.27522 36.872 -0.321707 -3.64149 0.326646 -0.62423 -3.28202 0.67539 -0.631936 -1.63705 0.68554 19.1315 21.5153 10.3572 -21.3783 -0.342197 16.1203 59.1958 -8.36676 -5.1935 20.0896 60.5613 56.503 -1.75175e-006 -2.28941e-006 2.28553e-006 -178.427 77.6156 174.926 -6.50626e-007 -6.14157e-006 -3 8.02887 -4.95097 0.697436 -58.2304 -9.14107 5.66225 -99.6262 1.21705 -23.994 4.28111e-006 7.70166e-007 4.37759e-006 -1.39682 15.7957 0.538304 6.40005e-006 -7.08879e-007 3 -8.02941 -4.95108 -0.697562 -179.57 9.63925 0.0435501 180 7.01545e-015 178.915 178.52 28.8029 179.307 -2.2066e-006 -3.05657e-006 1.20984 -56.8864 82.3674 59.1286 8.17613 26.1841 -2.17876 -161.595 24.2124 -8.90764 4.54188e-006 -4.6773e-006 -0.945358 -0.568366 -9.62788 0.891313 -1.60306e-007 3.14476e-006 0.516311 6.04798 57.6479 -15.1228 -8.12936 25.2332 3.48398 
47.1639 81.3585 8.50099 -6.41712 1.24628 37.1749 -0.333924 -3.64682 0.338995 -0.647905 -3.29283 0.7009 -0.655901 -1.64786 0.711435 18.9737 21.2868 10.2914 -20.9884 -0.29521 15.9998 59.0425 -8.28734 -5.13972 19.9547 60.9934 56.7226 -1.75175e-006 -2.28941e-006 2.28553e-006 -178.534 78.0094 175.061 -6.50626e-007 -6.14157e-006 -3 8.02887 -4.95097 0.697436 -58.5139 -9.24377 5.73251 -99.4205 1.29247 -24.0512 4.28111e-006 7.70166e-007 4.37759e-006 -1.39086 15.6609 0.537324 6.40005e-006 -7.08879e-007 3 -8.02941 -4.95108 -0.697562 -179.515 9.52209 0.0130271 180 7.01545e-015 178.913 178.551 28.8045 179.302 -2.2066e-006 -3.05657e-006 1.21942 -57.2009 82.399 59.4583 8.17666 26.2181 -2.1358 -161.657 24.2881 -8.84761 4.54188e-006 -4.6773e-006 -0.94481 -0.541355 -9.63087 0.892077 -1.60306e-007 3.14476e-006 0.518385 5.97169 57.5582 -15.1065 -8.12936 25.2332 3.48398 
